<svg width="142" height="28" viewBox="0 0 142 28" fill="none" xmlns="http://www.w3.org/2000/svg">
<path fill-rule="evenodd" clip-rule="evenodd" d="M107.333 11.4082C106.953 11.4002 106.573 11.4322 106.224 11.4801C105.232 11.6318 104.325 11.7037 104.387 12.9815C104.434 14.0597 105.24 14.8983 105.806 15.7608C105.914 15.9126 106.015 16.0723 106.123 16.2319C108.224 19.3946 108.642 18.1487 108.674 17.0066C108.712 15.8086 108.689 16.0483 107.875 15.3854C107.147 14.7944 106.565 14.1794 106.697 13.5806C107.03 13.1892 108.046 13.261 109.224 13.6284C108.48 13.0214 107.837 12.2946 107.333 11.4082" fill="#FF6900"/>
<path fill-rule="evenodd" clip-rule="evenodd" d="M130.679 8.35753C131.415 7.95019 132.221 7.47893 132.834 7.16734C133.26 6.95189 133.989 6.55254 134.299 7.14351C134.632 7.89426 134.043 8.26152 133.578 8.60507C133.082 8.95634 132.454 9.38765 131.865 9.79498C131.508 9.25182 131.121 8.77272 130.679 8.35753" fill="#FF6900"/>
<path fill-rule="evenodd" clip-rule="evenodd" d="M122.339 14.7385C122.626 16.9108 123.594 18.6279 125.416 19.786C126.951 21.0397 127.726 22.2697 126.85 23.4596C126.493 23.8749 126.137 24.2822 125.78 24.6896C124.455 25.001 123.788 25.4963 123.773 26.1671C123.78 26.4546 124.137 26.6143 124.811 26.6622C126.834 26.8139 126.757 26.2469 128.013 24.7294C131.221 20.848 130.493 22.7488 128.315 19.3866C127.803 18.5879 127.416 17.7255 127.222 16.7831C127.168 16.3917 127.191 16.0163 127.563 15.729C125.974 14.7066 124.191 14.515 122.339 14.7385" fill="#FF6900"/>
<path fill-rule="evenodd" clip-rule="evenodd" d="M104.488 0.00362013C107.635 2.32779 110.914 4.3642 114.619 5.45039C116.233 6.31421 119.275 6.5408 122.313 6.76713C123.826 6.87979 125.337 6.99238 126.672 7.18346C130.276 7.19145 131.865 10.2583 133.159 13.7802C133.764 15.8566 134.942 17.5179 136.64 18.8036C137.071 18.9626 137.422 19.0632 137.709 19.1455C138.705 19.431 138.927 19.4948 139.066 21.0078C139.089 21.0335 139.113 21.0592 139.136 21.0848C140.462 22.5366 141.79 23.9911 141.988 25.5921C142.081 26.3028 141.624 26.8538 141.135 27.3331C140.484 27.964 140.089 28.2196 139.283 27.7803C138.519 27.3699 138.959 26.8859 139.363 26.4427C139.438 26.3598 139.512 26.2783 139.577 26.1989C139.949 25.7357 140.221 25.3125 140.089 25.017C139.484 23.787 138.368 22.685 136.888 21.6787C133.81 21.2873 131.338 19.7061 129.462 16.9507C125.983 12.5606 120.947 14.3322 116.382 15.9383C116.147 16.0209 115.913 16.1032 115.681 16.1841C115.538 17.119 115.422 18.0447 115.311 18.9385C115.078 20.8088 114.862 22.5395 114.448 23.9228C114.324 25.001 113.836 25.8715 113.2 26.6622C112.503 27.5328 112.371 27.5488 111.239 27.6445C109.906 27.7644 110.061 26.9337 110.821 26.2309C110.933 26.1272 111.051 26.039 111.171 25.949C111.626 25.6088 112.116 25.2427 112.441 23.9228C112.913 21.8863 112.913 19.0432 112.565 15.3854C109.604 14.2353 107.263 12.3586 106.496 8.62106C106.064 8.27131 105.627 7.93525 105.182 7.62146C105.993 7.58912 106.635 6.42176 106.426 3.42196C106.389 3.62074 106.355 3.83239 106.321 4.04982C106.224 4.65345 106.121 5.30154 105.922 5.84174C105.364 7.50291 104.55 7.35111 103.612 5.46636C103.163 4.53198 102.907 3.34992 102.752 2.12805C102.424 3.94718 103 5.71968 103.789 6.73954C102.847 6.21526 101.857 5.81782 100.791 5.61817C99.5506 5.76185 98.6903 6.04135 98.2096 6.46467C97.0315 6.45668 96.6595 5.67397 96.3649 4.81962C95.2938 3.54994 96.7842 3.13225 98.208 2.7332C98.4949 2.6528 98.7791 2.57315 99.0391 2.48745C99.3222 2.39296 99.4494 2.37033 99.5146 2.29444C99.5761 2.22286 99.5824 2.10391 99.6125 1.83257C99.6585 1.41909 99.9056 1.2818 100.245 1.09345C100.305 1.05986 100.368 1.02464 100.434 0.985941C101.411 0.386988 102.62 -0.0441818 104.488 0.00362013Z" fill="#FF6900"/>
<path d="M0 11.5291C0 11.3149 0.176358 11.1385 0.390507 11.1385H7.30627C9.18322 11.1385 10.6067 11.6172 11.5641 12.5872C12.2947 13.3178 12.66 14.2122 12.66 15.283V15.3334C12.66 15.812 12.597 16.2529 12.4584 16.6308C12.3325 17.0214 12.1561 17.3615 11.942 17.6386C11.7278 17.9283 11.4885 18.1803 11.2113 18.3944C11.1358 18.4574 11.0602 18.5078 10.9846 18.5582C10.7327 18.7346 10.7579 19.0999 11.035 19.2258C11.6774 19.5156 12.2191 19.8935 12.66 20.347C13.2521 20.9516 13.5544 21.8082 13.5544 22.9042V22.9545C13.5544 23.6852 13.4158 24.3276 13.1261 24.8819C12.8364 25.4362 12.4333 25.9023 11.9042 26.2802C11.3751 26.6581 10.7453 26.9352 10.002 27.1242C9.2714 27.3131 8.44 27.4139 7.52042 27.4139H0.390507C0.176358 27.4139 0 27.2375 0 27.0234V11.5291ZM6.72681 18.0039C7.65899 18.0039 8.40221 17.8276 8.95648 17.4623C9.51075 17.0969 9.78788 16.5427 9.78788 15.812V15.7617C9.78788 15.1192 9.54854 14.6027 9.05725 14.25C8.56597 13.8847 7.86054 13.7083 6.92836 13.7083H3.19964C2.98549 13.7083 2.80913 13.8847 2.80913 14.0988V17.626C2.80913 17.8402 2.98549 18.0165 3.19964 18.0165H6.72681V18.0039ZM7.55821 24.8693C8.54078 24.8693 9.30919 24.6803 9.86346 24.315C10.4177 23.9497 10.6949 23.3954 10.6949 22.6522V22.6018C10.6949 21.909 10.4177 21.3673 9.86346 20.9894C9.30919 20.6115 8.46519 20.4226 7.34406 20.4226H3.19964C2.98549 20.4226 2.80913 20.5989 2.80913 20.8131V24.4788C2.80913 24.6929 2.98549 24.8693 3.19964 24.8693H7.55821Z" fill="white"/>
<path d="M28.1543 11H30.195C30.4344 11 30.6233 11.189 30.6233 11.4283V26.9982C30.6233 27.2376 30.4344 27.4265 30.195 27.4265H28.1543C27.9149 27.4265 27.726 27.2376 27.726 26.9982V11.4409C27.7134 11.2016 27.9149 11 28.1543 11Z" fill="white"/>
<path d="M33.2309 11H35.2717C35.511 11 35.7 11.189 35.7 11.4283V26.9982C35.7 27.2376 35.511 27.4265 35.2717 27.4265H33.2309C32.9916 27.4265 32.8026 27.2376 32.8026 26.9982V11.4409C32.8026 11.2016 32.9916 11 33.2309 11Z" fill="white"/>
<path d="M37.8918 11H39.2901C40.0963 11 40.7513 11.655 40.7513 12.4613V17.0592C41.0411 16.7316 41.482 16.4167 42.0488 16.1018C42.6157 15.7869 43.3463 15.6357 44.2281 15.6357C44.9335 15.6357 45.5634 15.7491 46.1303 15.9758C46.6845 16.2026 47.1506 16.5301 47.5159 16.9458C47.8812 17.3615 48.171 17.8654 48.3599 18.4574C48.5615 19.0495 48.6497 19.6919 48.6497 20.3974V27.0234C48.6497 27.2376 48.4733 27.4265 48.2466 27.4265H46.1429C45.9287 27.4265 45.7397 27.2501 45.7397 27.0234V20.4226C45.7397 19.6793 45.5382 19.1125 45.1351 18.7094C44.732 18.3063 44.2155 18.1047 43.5731 18.1047C43.1826 18.1047 42.8046 18.1803 42.4645 18.3441C42.1244 18.4952 41.8221 18.722 41.5827 18.9991C41.3308 19.2762 41.1418 19.6038 41.0033 19.9691C40.8647 20.3344 40.7891 20.7375 40.7891 21.1658V27.0234C40.7891 27.2376 40.6128 27.4265 40.386 27.4265H38.2823C38.0682 27.4265 37.8792 27.2501 37.8792 27.0234V13.0029V11H37.8918Z" fill="white"/>
<path d="M75.8214 15.875H77.648C77.9125 15.875 78.1267 16.0766 78.1393 16.3411L78.1897 17.1851C78.3408 17.0214 78.5172 16.845 78.7187 16.6686C78.9203 16.4923 79.1722 16.3159 79.462 16.1648C79.7517 16.0136 80.0792 15.8876 80.4319 15.7868C80.7972 15.6861 81.2003 15.6357 81.6664 15.6357C83.1151 15.6357 84.211 16.064 84.9669 16.9332C85.7227 17.7898 86.1006 18.9613 86.1006 20.4225V26.9226C86.1006 27.2123 85.8738 27.4391 85.5841 27.4391H83.7072C83.4174 27.4391 83.1907 27.2123 83.1907 26.9226V20.4477C83.1907 19.7045 82.9891 19.1377 82.586 18.7345C82.1829 18.3314 81.6664 18.1299 81.024 18.1299C80.6335 18.1299 80.2556 18.2055 79.9155 18.3692C79.5753 18.5204 79.273 18.7471 79.0337 19.0243C78.7817 19.3014 78.5928 19.6289 78.4542 19.9942C78.3156 20.3596 78.2401 20.7627 78.2401 21.191V26.9352C78.2401 27.2249 78.0133 27.4517 77.7236 27.4517H75.8466C75.5569 27.4517 75.3301 27.2249 75.3301 26.9352V16.3915C75.3301 16.1018 75.5569 15.875 75.8214 15.875Z" fill="white"/>
<path d="M23.3045 16.064C23.0525 16.064 22.851 16.2655 22.851 16.5175V22.1357C22.851 23.6726 21.755 24.7055 20.4072 24.7055C20.1552 24.7055 19.9789 24.7055 19.8781 24.7055C18.5428 24.7055 17.4343 23.6726 17.4343 22.1357V16.5175C17.4343 16.2655 17.2327 16.064 16.9808 16.064H15.192C14.94 16.064 14.7385 16.2655 14.7385 16.5175V22.753C14.7385 25.4613 17.2201 27.3383 19.8403 27.3635H19.8529C19.8655 27.3635 19.8781 27.3635 19.8781 27.3635H20.3568C20.3694 27.3635 20.382 27.3635 20.3946 27.3635H20.4575C23.0651 27.3131 25.5089 25.4487 25.5089 22.753V16.5175C25.5089 16.2655 25.3074 16.064 25.0554 16.064H23.3045Z" fill="white"/>
<path d="M71.9289 16.064C71.677 16.064 71.4755 16.2655 71.4755 16.5175V22.1357C71.4755 23.6726 70.3795 24.7055 69.0316 24.7055C68.7797 24.7055 68.6033 24.7055 68.5026 24.7055C67.1673 24.7055 66.0587 23.6726 66.0587 22.1357V16.5175C66.0587 16.2655 65.8572 16.064 65.6052 16.064H63.8165C63.5645 16.064 63.363 16.2655 63.363 16.5175V22.753C63.363 25.4613 65.8446 27.3383 68.4648 27.3635H68.4774C68.49 27.3635 68.5026 27.3635 68.5026 27.3635H68.9812C68.9938 27.3635 69.0064 27.3635 69.019 27.3635H69.082C71.6896 27.3131 74.1334 25.4487 74.1334 22.753V16.5175C74.1334 16.2655 73.9319 16.064 73.6799 16.064H71.9289Z" fill="white"/>
<path d="M49.8338 21.6949C49.8338 20.8634 49.9849 20.0698 50.2873 19.314C50.5896 18.5708 51.0179 17.9157 51.5596 17.3615C52.1012 16.8072 52.7563 16.3537 53.5121 16.0262C54.2805 15.6987 55.1119 15.5349 56.0315 15.5349C56.9511 15.5349 57.7951 15.6987 58.5509 16.0262C59.3193 16.3537 59.9618 16.7946 60.5034 17.3615C61.0451 17.9157 61.4734 18.5708 61.7757 19.314C62.0781 20.0572 62.2292 20.8509 62.2292 21.6949C62.2292 22.5389 62.0781 23.3199 61.7757 24.0757C61.4734 24.8189 61.0451 25.474 60.5034 26.0408C59.9618 26.6077 59.3067 27.0612 58.5509 27.3887C57.7825 27.7162 56.9511 27.88 56.0315 27.88C55.1119 27.88 54.2679 27.7162 53.5121 27.3887C52.7437 27.0612 52.1012 26.6077 51.5596 26.0408C51.0179 25.474 50.5896 24.8189 50.2873 24.0757C49.9849 23.3199 49.8338 22.5263 49.8338 21.6949ZM56.0441 25.3606C56.5984 25.3606 57.0897 25.2472 57.4928 25.0331C57.9085 24.8063 58.2486 24.5166 58.5131 24.1639C58.7902 23.7986 58.9792 23.408 59.1178 22.9797C59.2437 22.5515 59.3193 22.1232 59.3193 21.6949C59.3193 21.2792 59.2563 20.8635 59.1178 20.4226C58.9918 19.9817 58.7902 19.5912 58.5131 19.2384C58.236 18.8857 57.8959 18.596 57.4928 18.3818C57.0771 18.1551 56.5984 18.0543 56.0441 18.0543C55.4898 18.0543 54.9985 18.1677 54.5954 18.3818C54.1797 18.6086 53.8396 18.8857 53.5751 19.2384C53.2979 19.5912 53.109 19.9817 52.9704 20.4226C52.8445 20.8635 52.7689 21.2792 52.7689 21.6949C52.7689 22.1232 52.8319 22.5515 52.9704 22.9797C53.0964 23.408 53.2979 23.7986 53.5751 24.1639C53.8522 24.5292 54.1923 24.8189 54.5954 25.0331C54.9985 25.2472 55.4898 25.3606 56.0441 25.3606Z" fill="white"/>
<path fill-rule="evenodd" clip-rule="evenodd" d="M98.1649 11H99.5632H99.5758V13.0029V27.0236C99.5758 27.2503 99.3868 27.4267 99.1727 27.4267H97.069C96.8422 27.4267 96.6659 27.2377 96.6659 27.0236L96.6659 25.3538C95.9661 26.4722 94.6354 27.438 92.8021 27.438C89.5679 27.438 87.2973 24.7981 87.2973 21.5173C87.2973 18.2582 89.5125 15.5967 92.8353 15.5967C94.649 15.5967 96.0733 16.6367 96.6981 17.6651L96.7036 17.0592V12.4613C96.7036 11.6551 97.3587 11 98.1649 11ZM89.9334 21.5173C89.9334 23.4945 91.329 25.0154 93.2894 25.0154C95.1613 25.0154 96.6455 23.4945 96.6455 21.5173C96.6455 19.5619 95.1724 18.0301 93.2894 18.0301C91.3954 18.0301 89.9334 19.4858 89.9334 21.5173Z" fill="white"/>
</svg>
